<mxfile host="app.diagrams.net" modified="2023-04-03T22:55:56.460Z" agent="Mozilla/5.0 (Windows NT 10.0; Win64; x64) AppleWebKit/537.36 (KHTML, like Gecko) Chrome/111.0.0.0 Safari/537.36" etag="4NXJoAekCh3v1Gzjx2pY" version="21.1.4" type="github">
  <diagram name="Page-1" id="jQ6avOq8bcfftY_1XTqM">
    <mxGraphModel dx="989" dy="527" grid="1" gridSize="10" guides="1" tooltips="1" connect="1" arrows="1" fold="1" page="1" pageScale="1" pageWidth="850" pageHeight="1100" math="0" shadow="0">
      <root>
        <mxCell id="0" />
        <mxCell id="1" parent="0" />
        <mxCell id="w0b9A90PeGMEw6P4ulrS-67" style="rounded=0;orthogonalLoop=1;jettySize=auto;html=1;exitX=1;exitY=0.5;exitDx=0;exitDy=0;entryX=0;entryY=0.5;entryDx=0;entryDy=0;" edge="1" parent="1" source="w0b9A90PeGMEw6P4ulrS-1" target="w0b9A90PeGMEw6P4ulrS-66">
          <mxGeometry relative="1" as="geometry" />
        </mxCell>
        <mxCell id="w0b9A90PeGMEw6P4ulrS-1" value="&lt;b&gt;C&lt;sub&gt;1&lt;/sub&gt;&lt;/b&gt;" style="ellipse;whiteSpace=wrap;html=1;aspect=fixed;" vertex="1" parent="1">
          <mxGeometry x="80" y="80" width="80" height="80" as="geometry" />
        </mxCell>
        <mxCell id="w0b9A90PeGMEw6P4ulrS-33" style="rounded=0;orthogonalLoop=1;jettySize=auto;html=1;exitX=1;exitY=0.5;exitDx=0;exitDy=0;entryX=0;entryY=0.5;entryDx=0;entryDy=0;strokeWidth=3;" edge="1" parent="1" source="w0b9A90PeGMEw6P4ulrS-2" target="w0b9A90PeGMEw6P4ulrS-32">
          <mxGeometry relative="1" as="geometry" />
        </mxCell>
        <mxCell id="w0b9A90PeGMEw6P4ulrS-2" value="&lt;b&gt;C&lt;sub&gt;2&lt;/sub&gt;&lt;/b&gt;" style="ellipse;whiteSpace=wrap;html=1;aspect=fixed;" vertex="1" parent="1">
          <mxGeometry x="80" y="200" width="80" height="80" as="geometry" />
        </mxCell>
        <mxCell id="w0b9A90PeGMEw6P4ulrS-34" style="rounded=0;orthogonalLoop=1;jettySize=auto;html=1;exitX=1;exitY=0.5;exitDx=0;exitDy=0;entryX=0;entryY=0.5;entryDx=0;entryDy=0;strokeWidth=3;" edge="1" parent="1" source="w0b9A90PeGMEw6P4ulrS-3" target="w0b9A90PeGMEw6P4ulrS-32">
          <mxGeometry relative="1" as="geometry" />
        </mxCell>
        <mxCell id="w0b9A90PeGMEw6P4ulrS-3" value="&lt;b&gt;C&lt;sub&gt;3&lt;/sub&gt;&lt;/b&gt;" style="ellipse;whiteSpace=wrap;html=1;aspect=fixed;" vertex="1" parent="1">
          <mxGeometry x="80" y="320" width="80" height="80" as="geometry" />
        </mxCell>
        <mxCell id="w0b9A90PeGMEw6P4ulrS-4" value="&lt;b&gt;C&lt;sub&gt;4&lt;/sub&gt;&lt;/b&gt;" style="ellipse;whiteSpace=wrap;html=1;aspect=fixed;" vertex="1" parent="1">
          <mxGeometry x="80" y="440" width="80" height="80" as="geometry" />
        </mxCell>
        <mxCell id="w0b9A90PeGMEw6P4ulrS-5" value="&lt;b&gt;C&lt;sub&gt;5&lt;/sub&gt;&lt;/b&gt;" style="ellipse;whiteSpace=wrap;html=1;aspect=fixed;" vertex="1" parent="1">
          <mxGeometry x="80" y="560" width="80" height="80" as="geometry" />
        </mxCell>
        <mxCell id="w0b9A90PeGMEw6P4ulrS-6" value="&lt;b&gt;Ef&lt;sub&gt;1&lt;/sub&gt;&lt;/b&gt;" style="ellipse;whiteSpace=wrap;html=1;aspect=fixed;" vertex="1" parent="1">
          <mxGeometry x="680" y="80" width="80" height="80" as="geometry" />
        </mxCell>
        <mxCell id="w0b9A90PeGMEw6P4ulrS-7" value="&lt;b&gt;Ef&lt;sub&gt;2&lt;/sub&gt;&lt;/b&gt;" style="ellipse;whiteSpace=wrap;html=1;aspect=fixed;" vertex="1" parent="1">
          <mxGeometry x="680" y="200" width="80" height="80" as="geometry" />
        </mxCell>
        <mxCell id="w0b9A90PeGMEw6P4ulrS-8" value="&lt;b&gt;Ef&lt;sub&gt;3&lt;/sub&gt;&lt;/b&gt;" style="ellipse;whiteSpace=wrap;html=1;aspect=fixed;" vertex="1" parent="1">
          <mxGeometry x="680" y="320" width="80" height="80" as="geometry" />
        </mxCell>
        <mxCell id="w0b9A90PeGMEw6P4ulrS-9" value="&lt;b&gt;Ef&lt;sub&gt;4&lt;/sub&gt;&lt;/b&gt;" style="ellipse;whiteSpace=wrap;html=1;aspect=fixed;" vertex="1" parent="1">
          <mxGeometry x="680" y="440" width="80" height="80" as="geometry" />
        </mxCell>
        <mxCell id="w0b9A90PeGMEw6P4ulrS-10" value="&lt;b&gt;Ef&lt;sub&gt;5&lt;/sub&gt;&lt;/b&gt;" style="ellipse;whiteSpace=wrap;html=1;aspect=fixed;" vertex="1" parent="1">
          <mxGeometry x="680" y="560" width="80" height="80" as="geometry" />
        </mxCell>
        <mxCell id="w0b9A90PeGMEw6P4ulrS-60" style="rounded=0;orthogonalLoop=1;jettySize=auto;html=1;exitX=1;exitY=0.5;exitDx=0;exitDy=0;entryX=0;entryY=0.5;entryDx=0;entryDy=0;" edge="1" parent="1" source="w0b9A90PeGMEw6P4ulrS-13" target="w0b9A90PeGMEw6P4ulrS-59">
          <mxGeometry relative="1" as="geometry" />
        </mxCell>
        <mxCell id="w0b9A90PeGMEw6P4ulrS-13" value="" style="ellipse;whiteSpace=wrap;html=1;aspect=fixed;" vertex="1" parent="1">
          <mxGeometry x="250" y="250" width="40" height="40" as="geometry" />
        </mxCell>
        <mxCell id="w0b9A90PeGMEw6P4ulrS-64" style="rounded=0;orthogonalLoop=1;jettySize=auto;html=1;exitX=1;exitY=0.5;exitDx=0;exitDy=0;entryX=0;entryY=0.5;entryDx=0;entryDy=0;" edge="1" parent="1" source="w0b9A90PeGMEw6P4ulrS-14" target="w0b9A90PeGMEw6P4ulrS-62">
          <mxGeometry relative="1" as="geometry" />
        </mxCell>
        <mxCell id="w0b9A90PeGMEw6P4ulrS-14" value="" style="ellipse;whiteSpace=wrap;html=1;aspect=fixed;" vertex="1" parent="1">
          <mxGeometry x="240" y="520" width="40" height="40" as="geometry" />
        </mxCell>
        <mxCell id="w0b9A90PeGMEw6P4ulrS-15" value="" style="endArrow=classic;html=1;rounded=0;exitX=1;exitY=0.5;exitDx=0;exitDy=0;entryX=0;entryY=0.5;entryDx=0;entryDy=0;" edge="1" parent="1" source="w0b9A90PeGMEw6P4ulrS-2" target="w0b9A90PeGMEw6P4ulrS-13">
          <mxGeometry width="50" height="50" relative="1" as="geometry">
            <mxPoint x="570" y="430" as="sourcePoint" />
            <mxPoint x="620" y="380" as="targetPoint" />
          </mxGeometry>
        </mxCell>
        <mxCell id="w0b9A90PeGMEw6P4ulrS-16" value="" style="endArrow=classic;html=1;rounded=0;exitX=1;exitY=0.5;exitDx=0;exitDy=0;entryX=0;entryY=0.5;entryDx=0;entryDy=0;" edge="1" parent="1" source="w0b9A90PeGMEw6P4ulrS-3" target="w0b9A90PeGMEw6P4ulrS-13">
          <mxGeometry width="50" height="50" relative="1" as="geometry">
            <mxPoint x="170" y="250" as="sourcePoint" />
            <mxPoint x="260" y="300" as="targetPoint" />
          </mxGeometry>
        </mxCell>
        <mxCell id="w0b9A90PeGMEw6P4ulrS-17" value="" style="endArrow=classic;html=1;rounded=0;exitX=1;exitY=0.5;exitDx=0;exitDy=0;entryX=0;entryY=0.5;entryDx=0;entryDy=0;" edge="1" parent="1" target="w0b9A90PeGMEw6P4ulrS-14">
          <mxGeometry width="50" height="50" relative="1" as="geometry">
            <mxPoint x="160" y="480" as="sourcePoint" />
            <mxPoint x="250" y="490" as="targetPoint" />
          </mxGeometry>
        </mxCell>
        <mxCell id="w0b9A90PeGMEw6P4ulrS-18" value="" style="endArrow=classic;html=1;rounded=0;exitX=1;exitY=0.5;exitDx=0;exitDy=0;entryX=0;entryY=0.5;entryDx=0;entryDy=0;" edge="1" parent="1" target="w0b9A90PeGMEw6P4ulrS-14">
          <mxGeometry width="50" height="50" relative="1" as="geometry">
            <mxPoint x="160" y="600" as="sourcePoint" />
            <mxPoint x="240" y="580" as="targetPoint" />
          </mxGeometry>
        </mxCell>
        <mxCell id="w0b9A90PeGMEw6P4ulrS-41" style="rounded=0;orthogonalLoop=1;jettySize=auto;html=1;exitX=1;exitY=0.5;exitDx=0;exitDy=0;entryX=0;entryY=0.5;entryDx=0;entryDy=0;" edge="1" parent="1" source="w0b9A90PeGMEw6P4ulrS-32" target="w0b9A90PeGMEw6P4ulrS-59">
          <mxGeometry relative="1" as="geometry" />
        </mxCell>
        <mxCell id="w0b9A90PeGMEw6P4ulrS-32" value="" style="ellipse;whiteSpace=wrap;html=1;aspect=fixed;" vertex="1" parent="1">
          <mxGeometry x="250" y="310" width="40" height="40" as="geometry" />
        </mxCell>
        <mxCell id="w0b9A90PeGMEw6P4ulrS-58" value="" style="endArrow=none;html=1;rounded=0;jumpSize=6;strokeWidth=3;" edge="1" parent="1">
          <mxGeometry width="50" height="50" relative="1" as="geometry">
            <mxPoint x="66" y="690" as="sourcePoint" />
            <mxPoint x="86" y="690" as="targetPoint" />
            <Array as="points">
              <mxPoint x="76" y="710" />
            </Array>
          </mxGeometry>
        </mxCell>
        <mxCell id="w0b9A90PeGMEw6P4ulrS-63" style="rounded=0;orthogonalLoop=1;jettySize=auto;html=1;exitX=1;exitY=0.5;exitDx=0;exitDy=0;entryX=0;entryY=0.5;entryDx=0;entryDy=0;" edge="1" parent="1" source="w0b9A90PeGMEw6P4ulrS-59" target="w0b9A90PeGMEw6P4ulrS-62">
          <mxGeometry relative="1" as="geometry" />
        </mxCell>
        <mxCell id="w0b9A90PeGMEw6P4ulrS-59" value="" style="ellipse;whiteSpace=wrap;html=1;aspect=fixed;" vertex="1" parent="1">
          <mxGeometry x="330" y="280" width="40" height="40" as="geometry" />
        </mxCell>
        <mxCell id="w0b9A90PeGMEw6P4ulrS-68" style="rounded=0;orthogonalLoop=1;jettySize=auto;html=1;exitX=1;exitY=0.5;exitDx=0;exitDy=0;entryX=0;entryY=0.5;entryDx=0;entryDy=0;" edge="1" parent="1" source="w0b9A90PeGMEw6P4ulrS-62" target="w0b9A90PeGMEw6P4ulrS-66">
          <mxGeometry relative="1" as="geometry" />
        </mxCell>
        <mxCell id="w0b9A90PeGMEw6P4ulrS-62" value="" style="ellipse;whiteSpace=wrap;html=1;aspect=fixed;" vertex="1" parent="1">
          <mxGeometry x="420" y="280" width="40" height="40" as="geometry" />
        </mxCell>
        <mxCell id="w0b9A90PeGMEw6P4ulrS-69" style="edgeStyle=orthogonalEdgeStyle;rounded=0;orthogonalLoop=1;jettySize=auto;html=1;exitX=1;exitY=0.5;exitDx=0;exitDy=0;entryX=0;entryY=0.5;entryDx=0;entryDy=0;" edge="1" parent="1" source="w0b9A90PeGMEw6P4ulrS-66" target="w0b9A90PeGMEw6P4ulrS-6">
          <mxGeometry relative="1" as="geometry" />
        </mxCell>
        <mxCell id="w0b9A90PeGMEw6P4ulrS-66" value="" style="ellipse;whiteSpace=wrap;html=1;aspect=fixed;" vertex="1" parent="1">
          <mxGeometry x="560" y="100" width="40" height="40" as="geometry" />
        </mxCell>
        <mxCell id="w0b9A90PeGMEw6P4ulrS-83" value="OR" style="whiteSpace=wrap;html=1;aspect=fixed;" vertex="1" parent="1">
          <mxGeometry x="60" y="720" width="30" height="30" as="geometry" />
        </mxCell>
        <mxCell id="w0b9A90PeGMEw6P4ulrS-84" value="" style="endArrow=none;html=1;rounded=0;jumpSize=6;strokeWidth=3;" edge="1" parent="1">
          <mxGeometry width="50" height="50" relative="1" as="geometry">
            <mxPoint x="126" y="712" as="sourcePoint" />
            <mxPoint x="146" y="712" as="targetPoint" />
            <Array as="points">
              <mxPoint x="136" y="692" />
            </Array>
          </mxGeometry>
        </mxCell>
        <mxCell id="w0b9A90PeGMEw6P4ulrS-85" value="AND" style="whiteSpace=wrap;html=1;aspect=fixed;" vertex="1" parent="1">
          <mxGeometry x="120" y="720" width="30" height="30" as="geometry" />
        </mxCell>
      </root>
    </mxGraphModel>
  </diagram>
</mxfile>
